<svg xmlns="http://www.w3.org/2000/svg" width="24px" height="24px" viewBox="0 0 24 24" style="width: 24px; height: 24px; fill: rgb(251, 85, 84);">
    <g id="Symbols" stroke="none" stroke-width="1" fill="none" fill-rule="evenodd">
        <g id="Assets-for-Export" transform="translate(-24.000000, 0.000000)" fill="#dc3545">
            <g id="Icon-Camera-Off-24px" transform="translate(24.000000, 0.000000)">
                <path d="M13.7573593,6 L4.00585866,6 C2.89706013,6 2,6.8992496 2,8.0085302 L2,15.9914698 C2,16.4835828 2.17760958,16.9352259 2.47229113,17.2850682 L13.7573593,6 Z M16,12.2426407 L16,15.9914698 C16,17.1007504 15.1029399,18 13.9941413,18 L10.2426407,18 L16,12.2426407 Z M16,12.2426407 L16,14.499966 L21.0756492,16.6148096 C21.586154,16.8275189 22,16.5442917 22,16.0045612 L22,7.99539512 C22,7.44565489 21.5875957,7.17183667 21.0756492,7.38514669 L20.7016702,7.54097052 L16,12.2426407 Z M20.4877316,2.09805481 C20.8769027,1.70888376 21.506248,1.70725811 21.8994949,2.10050506 C22.2900192,2.49102936 22.2956069,3.1186067 21.9019452,3.51226838 L3.51226838,21.9019452 C3.12309732,22.2911162 2.49375202,22.2927419 2.10050506,21.8994949 C1.70998077,21.5089706 1.70439313,20.8813933 2.09805481,20.4877316 L20.4877316,2.09805481 Z" id="Combined-Shape"></path>
            </g>
        </g>
    </g>
</svg>