<svg id="Calque_1" data-name="Calque 1" xmlns="http://www.w3.org/2000/svg" width="350" height="170" viewBox="0 0 1024 500"><defs><style>.cls-1{fill:#f28e20;}.cls-2{fill:#5fc3dd;}.cls-3{fill:#abadc1;}.cls-4{fill:none;stroke:#f28e20;stroke-linecap:round;stroke-miterlimit:10;stroke-width:4px;}</style></defs><title>InstantVisio_Horizontal</title><circle class="cls-1" cx="199.08" cy="248.71" r="54.27"/><path class="cls-2" d="M310.94,256.25V125.11a29.81,29.81,0,0,0-29.81-29.81H117a29.81,29.81,0,0,0-29.81,29.81V374.89A29.81,29.81,0,0,0,117,404.69h164.1A29.81,29.81,0,0,0,309.82,383a67.19,67.19,0,0,1-22.41-13.62,26,26,0,0,1-12.31,3.08H122.6a26.1,26.1,0,0,1-26.1-26.1V139.21a26.1,26.1,0,0,1,26.1-26.1H275.1a26.1,26.1,0,0,1,26.1,26.1V260.5A66.82,66.82,0,0,1,310.94,256.25ZM198.85,378.61A10.41,10.41,0,1,1,188.44,389,10.41,10.41,0,0,1,198.85,378.61Z"/><path class="cls-1" d="M332.82,388.91a69.09,69.09,0,1,1,69.09-69.09A69.17,69.17,0,0,1,332.82,388.91Zm0-134.42a65.32,65.32,0,1,0,65.32,65.32A65.4,65.4,0,0,0,332.82,254.49Z"/><path class="cls-3" d="M429,210.1c-3.62,0-6.41-2.63-6.41-5.75s2.79-5.75,6.41-5.75,6.41,2.63,6.41,5.75S432.64,210.1,429,210.1Zm5.67,42.64c0,2.88-2.47,5.09-5.67,5.09s-5.67-2.22-5.67-5.09V220.37c0-2.71,2.47-5,5.67-5s5.67,2.3,5.67,5Z"/><path class="cls-3" d="M457.61,252.74c0,2.79-1.89,5-5.67,5s-5.67-2.22-5.67-5V227.85c0-2.71-.33-3-.66-3.45-1.15-1.56-1.4-2.14-1.4-3.2,0-2.71,2.38-4.77,5.5-4.77a5.51,5.51,0,0,1,4.35,2.38,19.87,19.87,0,0,1,10.84-3.53c10.35,0,15.53,6.41,15.53,16v21.44c0,2.79-2.05,5-5.67,5s-5.67-2.22-5.67-5V231.3c0-4.11-2.05-6.66-5.34-6.66a16,16,0,0,0-6.33,1.73,11.17,11.17,0,0,1,.16,1.56Z"/><path class="cls-3" d="M505.27,215.11c5.34,0,13.31,1.31,13.31,7,0,3.53-3.12,4.19-4.85,4.19-2.88,0-4.35-1.73-8.38-1.73-3.12,0-4.76,1.07-4.76,3,0,1.15.66,2,2.46,2.71,5.92,2.55,16.68,3.7,16.68,14.62,0,8-5.67,13-16,13-5.26,0-14.79-1.31-14.79-6.41a5.14,5.14,0,0,1,5.34-4.85c2.71,0,5.26,1.81,9.28,1.81,3,0,5-1,5-3.29a2.77,2.77,0,0,0-1.73-2.63c-5.34-3-17.42-3.2-17.42-14.62C489.41,220.29,494.75,215.11,505.27,215.11Z"/><path class="cls-3" d="M527.37,208.29c0-2.79,2.05-5,5.67-5s5.67,2.3,5.67,5v9.12h6.08a5.12,5.12,0,0,1,5.42,4.93c0,2.79-2.38,4.85-5.42,4.85h-6.08v12.4c0,6.08.49,8.22,4.44,8.22.74,0,1.23-.08,1.4-.08,5.18,0,6.74,1.4,6.74,4.44,0,4.77-3.78,5.42-7.89,5.42-12.73,0-16-6.25-16-17.42Z"/><path class="cls-3" d="M590.22,247.4c0,2.47,1.23,2.22,2.63,2.79a2.93,2.93,0,0,1,1.89,3.12c0,2.63-1.56,4.27-5.92,4.27a7.59,7.59,0,0,1-7-3.45,16.6,16.6,0,0,1-11.09,3.7c-9.53,0-14.62-5.18-14.62-13v-.25q0-12.57,16.27-12.57a21.65,21.65,0,0,1,6.49.82v-2.63c0-3.86-2.05-5.67-6.24-5.67a11.63,11.63,0,0,0-5.34,1.31,7.23,7.23,0,0,1-3.12.82,4.59,4.59,0,0,1-4.77-4.77c0-4.85,7.23-6.82,14-6.82,11.91,0,16.76,5.92,16.76,17Zm-22.84-2.71v.25c0,2.71,1.56,3.78,5.09,3.78a10,10,0,0,0,6.41-2.14v-5.92A31.53,31.53,0,0,0,573,240C568.28,240,567.38,242.22,567.38,244.69Z"/><path class="cls-3" d="M613,252.74c0,2.79-1.89,5-5.67,5s-5.67-2.22-5.67-5V227.85c0-2.71-.33-3-.66-3.45-1.15-1.56-1.4-2.14-1.4-3.2,0-2.71,2.38-4.77,5.51-4.77a5.51,5.51,0,0,1,4.35,2.38,19.87,19.87,0,0,1,10.85-3.53c10.35,0,15.53,6.41,15.53,16v21.44c0,2.79-2.05,5-5.67,5s-5.67-2.22-5.67-5V231.3c0-4.11-2.05-6.66-5.34-6.66a16,16,0,0,0-6.33,1.73,11.18,11.18,0,0,1,.16,1.56Z"/><path class="cls-3" d="M646.5,208.29c0-2.79,2.05-5,5.67-5s5.67,2.3,5.67,5v9.12h6.08a5.12,5.12,0,0,1,5.42,4.93c0,2.79-2.38,4.85-5.42,4.85h-6.08v12.4c0,6.08.49,8.22,4.44,8.22.74,0,1.23-.08,1.4-.08,5.18,0,6.74,1.4,6.74,4.44,0,4.77-3.78,5.42-7.89,5.42-12.74,0-16-6.25-16-17.42Z"/><path class="cls-2" d="M717.24,246.66,731.12,201a3.56,3.56,0,0,1,3.2-2.47,3.24,3.24,0,0,1,3.45,3.29,5.57,5.57,0,0,1-.16,1.23l-16,50.69c-.82,2.55-1.89,4.36-4.35,4.36s-3.53-1.89-4.27-4.36L697,203a5.57,5.57,0,0,1-.16-1.23,3.28,3.28,0,0,1,3.45-3.29,3.64,3.64,0,0,1,3.12,2.47Z"/><path class="cls-2" d="M749,206.32a3.94,3.94,0,0,1-3.94-3.94,3.94,3.94,0,1,1,7.89,0A3.94,3.94,0,0,1,749,206.32Zm0,51.59a3.16,3.16,0,0,1-3.2-3.2V218.48a3.2,3.2,0,1,1,6.41,0v36.23A3.15,3.15,0,0,1,749,257.91Z"/><path class="cls-2" d="M776.81,215c4.27,0,10.93,1.15,10.93,4.6a3,3,0,0,1-3,3,3.06,3.06,0,0,1-1.48-.41,12.72,12.72,0,0,0-6.25-1.48c-5,0-7.31,2-7.31,5.75,0,2.55,1.07,3.86,3.86,5.26,5.67,2.79,15.28,3.53,15.28,14.21,0,7.39-4.68,12-13.8,12-4.19,0-12.08-1-12.08-4.77a3,3,0,0,1,3-3,1.77,1.77,0,0,1,.82.16,21.58,21.58,0,0,0,8.22,1.89c4.52,0,7.56-1.81,7.56-6.08a5.17,5.17,0,0,0-3-5.09c-5.18-2.79-16.1-3.37-16.1-14.21C763.5,219.79,768.1,215,776.81,215Z"/><path class="cls-2" d="M801.21,206.32a3.94,3.94,0,0,1-3.94-3.94,3.94,3.94,0,1,1,7.89,0A3.94,3.94,0,0,1,801.21,206.32Zm0,51.59a3.16,3.16,0,0,1-3.2-3.2V218.48a3.2,3.2,0,1,1,6.41,0v36.23A3.15,3.15,0,0,1,801.21,257.91Z"/><path class="cls-2" d="M815,243.29V229.57c0-8.22,5.34-14.62,15.36-14.62s15.36,6.41,15.36,14.62v13.72c0,8.22-5.34,14.62-15.36,14.62S815,251.51,815,243.29Zm24.32,0v-13.8c0-5.34-3-8.63-9-8.63s-9,3.29-9,8.63v13.8c0,5.42,3,8.71,9,8.71S839.33,248.71,839.33,243.29Z"/><line class="cls-4" x1="447.22" y1="293.56" x2="926.94" y2="293.56"/></svg>