<svg id="Calque_1" data-name="Calque 1" xmlns="http://www.w3.org/2000/svg" width="180" height="180" viewBox="0 0 512 512"><defs><style>.cls-1{fill:#abadc1;}.cls-2{fill:#5fc3dd;}.cls-3{fill:#f28e20;}</style></defs><title>InstantVisio_Vertical</title><path class="cls-1" d="M81.17,434.79a5.19,5.19,0,0,1-5.46-4.9c0-2.73,2.38-4.9,5.46-4.9a5.19,5.19,0,0,1,5.46,4.9C86.63,432.62,84.25,434.79,81.17,434.79ZM86,471.12a4.86,4.86,0,0,1-9.66,0V443.54a4.87,4.87,0,0,1,9.66,0Z"/><path class="cls-1" d="M105.53,471.12c0,2.38-1.61,4.27-4.83,4.27s-4.83-1.89-4.83-4.27V449.91c0-2.31-.28-2.52-.56-2.94-1-1.33-1.19-1.82-1.19-2.73,0-2.31,2-4.06,4.69-4.06a4.7,4.7,0,0,1,3.71,2,16.94,16.94,0,0,1,9.24-3c8.82,0,13.23,5.46,13.23,13.65v18.27c0,2.38-1.75,4.27-4.83,4.27s-4.83-1.89-4.83-4.27V452.85c0-3.5-1.75-5.67-4.55-5.67a13.6,13.6,0,0,0-5.39,1.47,9.52,9.52,0,0,1,.14,1.33Z"/><path class="cls-1" d="M146.14,439.06c4.55,0,11.34,1.12,11.34,6,0,3-2.66,3.57-4.13,3.57-2.45,0-3.71-1.47-7.14-1.47-2.66,0-4.06.91-4.06,2.52,0,1,.56,1.68,2.1,2.31,5,2.17,14.21,3.15,14.21,12.46,0,6.79-4.83,11.06-13.65,11.06-4.48,0-12.6-1.12-12.6-5.46a4.38,4.38,0,0,1,4.55-4.13c2.31,0,4.48,1.54,7.91,1.54,2.52,0,4.27-.84,4.27-2.8a2.36,2.36,0,0,0-1.47-2.24c-4.55-2.52-14.84-2.73-14.84-12.46C132.63,443.47,137.18,439.06,146.14,439.06Z"/><path class="cls-1" d="M165,433.25c0-2.38,1.75-4.27,4.83-4.27s4.83,2,4.83,4.27V441h5.18a4.36,4.36,0,0,1,4.62,4.2c0,2.38-2,4.13-4.62,4.13h-5.18v10.57c0,5.18.42,7,3.78,7,.63,0,1.05-.07,1.19-.07,4.41,0,5.74,1.19,5.74,3.78,0,4.06-3.22,4.62-6.72,4.62-10.85,0-13.65-5.32-13.65-14.84Z"/><path class="cls-1" d="M218.54,466.57c0,2.1,1.05,1.89,2.24,2.38a2.49,2.49,0,0,1,1.61,2.66c0,2.24-1.33,3.64-5,3.64a6.47,6.47,0,0,1-6-2.94,14.14,14.14,0,0,1-9.45,3.15c-8.12,0-12.46-4.41-12.46-11.06v-.21q0-10.71,13.86-10.71a18.45,18.45,0,0,1,5.53.7v-2.24c0-3.29-1.75-4.83-5.32-4.83a9.91,9.91,0,0,0-4.55,1.12,6.17,6.17,0,0,1-2.66.7,3.91,3.91,0,0,1-4.06-4.06c0-4.13,6.16-5.81,12-5.81,10.15,0,14.28,5,14.28,14.49Zm-19.46-2.31v.21c0,2.31,1.33,3.22,4.34,3.22a8.54,8.54,0,0,0,5.46-1.82v-5a26.87,26.87,0,0,0-5-.56C199.85,460.27,199.08,462.16,199.08,464.26Z"/><path class="cls-1" d="M237.94,471.12c0,2.38-1.61,4.27-4.83,4.27s-4.83-1.89-4.83-4.27V449.91c0-2.31-.28-2.52-.56-2.94-1-1.33-1.19-1.82-1.19-2.73,0-2.31,2-4.06,4.69-4.06a4.7,4.7,0,0,1,3.71,2,16.93,16.93,0,0,1,9.24-3c8.82,0,13.23,5.46,13.23,13.65v18.27c0,2.38-1.75,4.27-4.83,4.27s-4.83-1.89-4.83-4.27V452.85c0-3.5-1.75-5.67-4.55-5.67a13.61,13.61,0,0,0-5.39,1.47,9.53,9.53,0,0,1,.14,1.33Z"/><path class="cls-1" d="M266.5,433.25c0-2.38,1.75-4.27,4.83-4.27s4.83,2,4.83,4.27V441h5.18a4.36,4.36,0,0,1,4.62,4.2c0,2.38-2,4.13-4.62,4.13h-5.18v10.57c0,5.18.42,7,3.78,7,.63,0,1.05-.07,1.19-.07,4.41,0,5.74,1.19,5.74,3.78,0,4.06-3.22,4.62-6.72,4.62-10.85,0-13.65-5.32-13.65-14.84Z"/><path class="cls-2" d="M326.79,465.94,338.62,427a3,3,0,0,1,2.73-2.1,2.76,2.76,0,0,1,2.94,2.8,4.75,4.75,0,0,1-.14,1.05L330.5,472c-.7,2.17-1.61,3.71-3.71,3.71s-3-1.61-3.64-3.71l-13.65-43.2a4.75,4.75,0,0,1-.14-1.05,2.8,2.8,0,0,1,2.94-2.8A3.1,3.1,0,0,1,315,427Z"/><path class="cls-2" d="M353.89,431.57a3.36,3.36,0,0,1-3.36-3.36,3.36,3.36,0,0,1,6.72,0A3.36,3.36,0,0,1,353.89,431.57Zm0,44a2.69,2.69,0,0,1-2.73-2.73V441.93a2.73,2.73,0,1,1,5.46,0V472.8A2.69,2.69,0,0,1,353.89,475.53Z"/><path class="cls-2" d="M377.55,439c3.64,0,9.31,1,9.31,3.92a2.51,2.51,0,0,1-2.52,2.52,2.61,2.61,0,0,1-1.26-.35,10.84,10.84,0,0,0-5.32-1.26c-4.27,0-6.23,1.68-6.23,4.9,0,2.17.91,3.29,3.29,4.48,4.83,2.38,13,3,13,12.11,0,6.3-4,10.22-11.76,10.22-3.57,0-10.29-.84-10.29-4.06a2.52,2.52,0,0,1,2.59-2.52,1.51,1.51,0,0,1,.7.14,18.39,18.39,0,0,0,7,1.61c3.85,0,6.44-1.54,6.44-5.18a4.4,4.4,0,0,0-2.59-4.34c-4.41-2.38-13.72-2.87-13.72-12.11C366.21,443,370.13,439,377.55,439Z"/><path class="cls-2" d="M398.35,431.57a3.36,3.36,0,0,1-3.36-3.36,3.36,3.36,0,1,1,6.72,0A3.36,3.36,0,0,1,398.35,431.57Zm0,44a2.69,2.69,0,0,1-2.73-2.73V441.93a2.73,2.73,0,1,1,5.46,0V472.8A2.69,2.69,0,0,1,398.35,475.53Z"/><path class="cls-2" d="M410.11,463.07V451.38c0-7,4.55-12.46,13.09-12.46s13.09,5.46,13.09,12.46v11.69c0,7-4.55,12.46-13.09,12.46S410.11,470.07,410.11,463.07Zm20.72,0V451.31c0-4.55-2.59-7.35-7.63-7.35s-7.63,2.8-7.63,7.35v11.76c0,4.62,2.59,7.42,7.63,7.42S430.83,467.69,430.83,463.07Z"/><circle class="cls-3" cx="204.42" cy="211.7" r="62.05"/><path class="cls-2" d="M332.29,220.32V70.4a34.07,34.07,0,0,0-34.07-34.07H110.62A34.07,34.07,0,0,0,76.54,70.4V355.94A34.07,34.07,0,0,0,110.62,390H298.22A34.08,34.08,0,0,0,331,365.2a76.81,76.81,0,0,1-25.61-15.57,29.71,29.71,0,0,1-14.07,3.52H117a29.84,29.84,0,0,1-29.84-29.84V86.51A29.84,29.84,0,0,1,117,56.67H291.32a29.84,29.84,0,0,1,29.84,29.84V225.17A76.39,76.39,0,0,1,332.29,220.32ZM204.15,360.2a11.9,11.9,0,1,1-11.9,11.9A11.9,11.9,0,0,1,204.15,360.2Z"/><path class="cls-3" d="M357.31,372a79,79,0,1,1,79-79A79.08,79.08,0,0,1,357.31,372Zm0-153.67A74.68,74.68,0,1,0,432,293,74.76,74.76,0,0,0,357.31,218.31Z"/></svg>