<svg version="1.1" id="Calque_1" xmlns="http://www.w3.org/2000/svg" x="0" y="0" viewBox="0 0 1024 376.4" xml:space="preserve"><style>.st0{fill:#5fc3dd}.st1{fill:#f28e20}.st2{fill:#abadc1}</style><switch><g><path class="st0" d="M839 145.6c5.2 0 13.3 1.4 13.3 5.6 0 2-1.6 3.6-3.7 3.6-.6 0-1.3-.2-1.8-.5-2.3-1.2-5-1.9-7.6-1.8-6.1 0-8.9 2.4-8.9 7 0 3.1 1.3 4.7 4.7 6.4 6.9 3.4 18.6 4.3 18.6 17.3 0 9-5.7 14.6-16.8 14.6-5.1 0-14.7-1.2-14.7-5.8 0-2 1.6-3.6 3.6-3.6.3 0 .7.1 1 .2 3.1 1.4 6.5 2.2 10 2.3 5.5 0 9.2-2.2 9.2-7.4.2-2.6-1.3-5.1-3.7-6.2-6.3-3.4-19.6-4.1-19.6-17.3.2-8.5 5.8-14.4 16.4-14.4zM868.7 135.1c-2.6 0-4.8-2.1-4.8-4.8 0-2.7 2.1-4.8 4.8-4.8s4.8 2.1 4.8 4.8c0 2.6-2.1 4.8-4.8 4.8zm0 62.7c-2.1 0-3.9-1.7-3.9-3.8v-44.2c0-2.2 1.7-3.9 3.9-3.9s3.9 1.7 3.9 3.9v44.1c0 2.1-1.7 3.9-3.8 3.9h-.1zM885.5 180.1v-16.7c0-10 6.5-17.8 18.7-17.8s18.7 7.8 18.7 17.8v16.7c0 10-6.5 17.8-18.7 17.8-12.2-.1-18.7-7.8-18.7-17.8zm29.6 0v-16.8c0-6.5-3.6-10.5-10.9-10.5-7.3 0-10.9 4-10.9 10.5v16.8c0 6.6 3.6 10.6 10.9 10.6 7.2 0 10.9-4.1 10.9-10.6z"/><circle class="st1" cx="136.1" cy="186.6" r="66"/><path class="st0" d="M272.2 195.8V36.3C272.2 16.2 256 0 236 0H36.3C16.2 0 0 16.2 0 36.3v303.9c0 20 16.2 36.3 36.3 36.3H236c16.2 0 30.5-10.8 34.9-26.4-10.1-3.7-19.4-9.3-27.3-16.6-4.6 2.5-9.8 3.8-15 3.7H43.1c-17.5 0-31.8-14.2-31.8-31.8v-252c0-17.5 14.2-31.8 31.8-31.8h185.5c17.5 0 31.8 14.2 31.8 31.8V201c3.8-2 7.8-3.8 11.8-5.2zM135.9 344.7c7 0 12.7 5.7 12.7 12.7 0 7-5.7 12.7-12.7 12.7-7 0-12.7-5.7-12.7-12.7 0-7.1 5.7-12.7 12.7-12.7z"/><path class="st1" d="M298.9 357.2c-46.4 0-84.1-37.6-84.1-84.1s37.6-84.1 84.1-84.1 84.1 37.6 84.1 84.1c-.1 46.5-37.7 84.1-84.1 84.1zm0-163.5c-43.9 0-79.5 35.6-79.5 79.5s35.6 79.5 79.5 79.5 79.5-35.6 79.5-79.5c-.1-43.9-35.7-79.5-79.5-79.5z"/><path class="st2" d="M415.9 139.7c-4.4 0-7.8-3.2-7.8-7s3.4-7 7.8-7 7.8 3.2 7.8 7-3.4 7-7.8 7zm6.9 51.9c0 3.5-3 6.2-6.9 6.2-3.9 0-6.9-2.7-6.9-6.2v-39.4c0-3.3 3-6.1 6.9-6.1 3.9 0 6.9 2.8 6.9 6.1v39.4zM450.7 191.6c0 3.4-2.3 6.1-6.9 6.1s-6.9-2.7-6.9-6.1v-30.3c0-3.3-.4-3.6-.8-4.2-1.4-1.9-1.7-2.6-1.7-3.9 0-3.3 2.9-5.8 6.7-5.8 2.1.1 4.1 1.1 5.3 2.9 3.9-2.7 8.5-4.2 13.2-4.3 12.6 0 18.9 7.8 18.9 19.5v26.1c0 3.4-2.5 6.1-6.9 6.1s-6.9-2.7-6.9-6.1v-26.1c0-5-2.5-8.1-6.5-8.1-2.7.2-5.3.9-7.7 2.1.1.6.2 1.3.2 1.9v30.2zM508.7 145.8c6.5 0 16.2 1.6 16.2 8.5 0 4.3-3.8 5.1-5.9 5.1-3.5 0-5.3-2.1-10.2-2.1-3.8 0-5.8 1.3-5.8 3.6 0 1.4.8 2.4 3 3.3 7.2 3.1 20.3 4.5 20.3 17.8 0 9.7-6.9 15.8-19.5 15.8-6.4 0-18-1.6-18-7.8.2-3.4 3.1-6 6.5-5.9 3.3 0 6.4 2.2 11.3 2.2 3.6 0 6.1-1.2 6.1-4 0-1.4-.8-2.7-2.1-3.2-6.5-3.6-21.2-3.9-21.2-17.8 0-9.2 6.5-15.5 19.3-15.5zM535.6 137.5c0-3.4 2.5-6.1 6.9-6.1s6.9 2.8 6.9 6.1v11.1h7.4c3.4-.2 6.4 2.4 6.6 5.8v.1c0 3.4-2.9 5.9-6.6 5.9h-7.4v15.1c0 7.4.6 10 5.4 10 .9 0 1.5-.1 1.7-.1 6.3 0 8.2 1.7 8.2 5.4 0 5.8-4.6 6.6-9.6 6.6-15.5 0-19.5-7.6-19.5-21.2v-38.7zM612 185.1c0 3 1.5 2.7 3.2 3.4 1.6.6 2.5 2.1 2.3 3.8 0 3.2-1.9 5.2-7.2 5.2-3.4.3-6.7-1.3-8.5-4.2-3.8 3.1-8.6 4.7-13.5 4.5-11.6 0-17.8-6.3-17.8-15.8v-.3c0-10.2 6.6-15.3 19.8-15.3 2.7-.1 5.3.3 7.9 1v-3.2c0-4.7-2.5-6.9-7.6-6.9-2.3 0-4.5.6-6.5 1.6-1.2.6-2.5 1-3.8 1-3.1.1-5.7-2.3-5.8-5.4v-.4c0-5.9 8.8-8.3 17-8.3 14.5 0 20.4 7.2 20.4 20.7l.1 18.6zm-27.8-3.3v.3c0 3.3 1.9 4.6 6.2 4.6 2.8.1 5.6-.9 7.8-2.6v-7.2c-2.4-.5-4.7-.8-7.2-.8-5.7 0-6.8 2.7-6.8 5.7zM639.7 191.6c0 3.4-2.3 6.1-6.9 6.1s-6.9-2.7-6.9-6.1v-30.3c0-3.3-.4-3.6-.8-4.2-1.4-1.9-1.7-2.6-1.7-3.9 0-3.3 2.9-5.8 6.7-5.8 2.1.1 4.1 1.1 5.3 2.9 3.9-2.7 8.5-4.2 13.2-4.3 12.6 0 18.9 7.8 18.9 19.5v26.1c0 3.4-2.5 6.1-6.9 6.1s-6.9-2.7-6.9-6.1v-26.1c0-5-2.5-8.1-6.5-8.1-2.7.2-5.3.9-7.7 2.1.1.6.2 1.3.2 1.9v30.2zM680.5 137.5c0-3.4 2.5-6.1 6.9-6.1s6.9 2.8 6.9 6.1v11.1h7.4c3.4-.2 6.4 2.4 6.6 5.8v.1c0 3.4-2.9 5.9-6.6 5.9h-7.4v15.1c0 7.4.6 10 5.4 10 .9 0 1.5-.1 1.7-.1 6.3 0 8.2 1.7 8.2 5.4 0 5.8-4.6 6.6-9.6 6.6-15.5 0-19.5-7.6-19.5-21.2v-38.7z"/><path class="st0" d="M766.6 184.2l16.9-55.6c.5-1.7 2.1-2.9 3.9-3 2.2-.1 4 1.5 4.2 3.7v.3c0 .5-.1 1-.2 1.5l-19.5 61.7c-1 3.1-2.3 5.3-5.3 5.3s-4.3-2.3-5.2-5.3L741.9 131c-.1-.5-.2-1-.2-1.5 0-2.2 1.8-4 4-4h.2c1.7.2 3.2 1.3 3.8 3l16.9 55.7zM805.2 135.1c-2.6 0-4.8-2.1-4.8-4.8 0-2.7 2.1-4.8 4.8-4.8 2.7 0 4.8 2.1 4.8 4.8 0 2.6-2.1 4.8-4.8 4.8zm0 62.7c-2.1 0-3.9-1.7-3.9-3.8v-44.2c0-2.2 1.7-3.9 3.9-3.9s3.9 1.7 3.9 3.9v44.1c0 2.1-1.7 3.9-3.8 3.9h-.1z"/><path fill="none" stroke="#f28e20" stroke-width="4" stroke-linecap="round" stroke-miterlimit="10" d="M438 241.2h583.7"/></g></switch></svg>
